<?xml version="1.0" standalone="no"?>
<!DOCTYPE svg PUBLIC "-//W3C//DTD SVG 20010904//EN"
 "http://www.w3.org/TR/2001/REC-SVG-20010904/DTD/svg10.dtd">
<svg version="1.0" xmlns="http://www.w3.org/2000/svg"
 width="840.000000pt" height="521.000000pt" viewBox="0 0 840.000000 521.000000"
 preserveAspectRatio="xMidYMid meet">
<metadata>
Created by potrace 1.16, written by Peter Selinger 2001-2019
</metadata>
<g transform="translate(0.000000,521.000000) scale(0.100000,-0.100000)"
fill="#FAFAFA" stroke="none">
<path d="M3562 4697 c-489 -562 -1150 -1578 -1405 -2162 -163 -373 -232 -617
-244 -870 -18 -383 140 -602 507 -703 91 -25 105 -26 365 -26 231 0 291 3 413
22 438 69 931 238 1130 387 144 108 150 230 15 327 -136 97 -275 152 -584 227
-269 65 -382 102 -506 163 -190 92 -308 222 -360 393 -29 99 -24 309 11 450
62 246 314 835 740 1727 l65 138 -29 15 -29 15 -89 -103z"/>
<path d="M4146 4568 c-67 -12 -169 -60 -235 -110 -246 -186 -481 -610 -622
-1121 -128 -467 -158 -825 -79 -955 42 -69 131 -91 222 -55 58 22 181 99 254
157 32 27 160 151 284 276 288 291 393 371 562 423 108 34 178 40 274 23 200
-36 398 -179 613 -445 130 -161 426 -560 616 -831 122 -173 229 -328 345 -498
34 -50 64 -92 66 -92 14 0 54 25 54 34 0 6 -18 63 -41 126 -219 613 -645 1489
-981 2018 -221 348 -461 643 -658 806 -250 208 -463 285 -674 244z"/>
<path d="M4525 2953 c-37 -10 -75 -44 -97 -86 -19 -37 -22 -58 -23 -177 0
-199 11 -260 102 -560 127 -420 139 -669 43 -859 -100 -198 -308 -328 -637
-396 -236 -49 -922 -125 -1646 -182 l-227 -17 0 -33 c0 -37 -6 -34 145 -62
378 -68 861 -121 1388 -151 229 -14 815 -13 982 0 270 22 446 46 623 86 657
147 930 457 809 919 -33 126 -137 338 -243 495 -235 351 -630 746 -935 934
-108 67 -228 104 -284 89z"/>
</g>
</svg>
